<svg xmlns="http://www.w3.org/2000/svg" viewBox="0 0 280.757 60.503" height="60.503" width="280.757"><path d="M11.39 38.496h19.09v9.492H0V0h11.391v38.496z" fill="#fd484e"/><path d="M50.466 11.742c5.409 0 9.628 1.77 12.661 5.309 3.032 3.539 4.548 7.969 4.548 13.289 0 5.25-1.575 9.627-4.724 13.131-3.149 3.504-7.334 5.255-12.555 5.255-5.058 0-9.102-1.734-12.134-5.203-3.032-3.468-4.548-7.922-4.548-13.359 0-3.773.685-6.979 2.055-9.615 1.369-2.637 3.248-4.764 5.636-6.381s5.408-2.426 9.061-2.426zm.281 6.856c-1.986 0-3.482.768-4.487 2.303s-1.507 4.588-1.507 9.158c0 4.196.479 7.207 1.437 9.035.958 1.828 2.454 2.742 4.487 2.742 1.776 0 3.213-.779 4.312-2.338 1.098-1.559 1.647-4.529 1.647-8.912 0-4.664-.485-7.828-1.455-9.492-.97-1.664-2.448-2.496-4.434-2.496zm59.01-5.309c-1.102-.234-2.027-.352-2.777-.352-2.32 0-3.68 1.032-4.078 3.094 1.898 1.992 2.848 4.242 2.848 6.75 0 3.352-1.401 6.024-4.201 8.016-2.801 1.992-6.838 2.988-12.111 2.988a27.98 27.98 0 01-5.484-.532c-1.195.704-1.793 1.607-1.793 2.709 0 1.219.504 2.028 1.512 2.427 1.007.399 3.433.692 7.277.879 5.461.281 9.223.621 11.285 1.02 2.062.399 3.797 1.359 5.203 2.883 1.406 1.524 2.109 3.422 2.109 5.695 0 3.258-1.506 6.012-4.518 8.262-3.012 2.25-8.35 3.375-16.014 3.375-7.195 0-12.047-.78-14.555-2.34-2.508-1.561-3.762-3.538-3.762-5.932 0-3.168 2.027-5.303 6.082-6.406-3-1.5-4.5-3.609-4.5-6.328 0-3.398 2.367-6.047 7.102-7.945-4.196-1.732-6.293-4.625-6.293-8.676 0-3.302 1.447-5.983 4.342-8.044 2.895-2.061 6.896-3.091 12.006-3.091 3.234 0 6.363.516 9.387 1.547.211-2.016.803-3.674 1.775-4.975.972-1.301 3.041-1.951 6.205-1.951 1.031 0 2.016.094 2.953.281zM82.37 47.742c-.422 0-.955.281-1.6.843-.645.563-.967 1.242-.967 2.039 0 1.594 1.02 2.59 3.059 2.988 2.039.398 4.43.598 7.172.598 3.586 0 6.1-.27 7.541-.809 1.441-.539 2.162-1.406 2.162-2.602 0-.914-.604-1.617-1.811-2.109-1.208-.492-4.424-.738-9.65-.738l-2.109.035c-1.289 0-2.157-.035-2.602-.105-.492-.092-.891-.14-1.195-.14zm6.979-30.34c-1.799 0-3.208.487-4.224 1.459-1.016.973-1.524 2.256-1.524 3.85 0 3.609 1.928 5.414 5.784 5.414 1.869 0 3.335-.527 4.398-1.582 1.063-1.055 1.595-2.332 1.595-3.832 0-1.406-.502-2.642-1.507-3.709-1.006-1.066-2.513-1.6-4.522-1.6zm39.48-5.66c5.409 0 9.628 1.77 12.661 5.309 3.032 3.539 4.548 7.969 4.548 13.289 0 5.25-1.575 9.627-4.724 13.131-3.149 3.504-7.334 5.255-12.555 5.255-5.058 0-9.102-1.734-12.134-5.203-3.032-3.468-4.548-7.922-4.548-13.359 0-3.773.685-6.979 2.055-9.615 1.369-2.637 3.248-4.764 5.636-6.381 2.389-1.617 5.409-2.426 9.061-2.426zm.281 6.856c-1.986 0-3.482.768-4.487 2.303s-1.507 4.588-1.507 9.158c0 4.196.479 7.207 1.437 9.035.958 1.828 2.454 2.742 4.487 2.742 1.776 0 3.213-.779 4.312-2.338 1.098-1.559 1.647-4.529 1.647-8.912 0-4.664-.485-7.828-1.455-9.492-.97-1.664-2.447-2.496-4.434-2.496zm35.35 2.039v15.012c0 1.875.28 3.129.84 3.762.561.633 1.879.949 3.956.949.957 0 2.065-.047 3.326-.141v7.77c-3.047.515-5.238.773-6.574.773-4.359 0-7.453-.837-9.281-2.513-1.828-1.675-2.742-4.705-2.742-9.088V20.638h-5.625v-8.156h6.223l.844-10.477 9.035-.703v11.18h7.629v8.156h-7.631zm41.027-8.156l-11.134 34.063c-1.245 3.796-2.307 6.544-3.186 8.245a10.263 10.263 0 01-3.798 4.08c-1.653 1.02-3.956 1.529-6.911 1.529-1.478 0-3.154-.141-5.029-.422v-8.051c1.856.328 3.572.492 5.146.492 2.068 0 3.454-.387 4.159-1.16.705-.775 1.233-1.867 1.586-3.274l-12.931-35.502h11.074l6.838 21.129 6.576-21.129zm4.535 47.495V12.48h9.633v5.203c1.781-3.96 4.898-5.941 9.352-5.941 3.844 0 6.99 1.542 9.439 4.623 2.449 3.082 3.674 7.564 3.674 13.447 0 6.258-1.236 10.975-3.709 14.15-2.473 3.176-5.69 4.763-9.65 4.763-4.008 0-6.868-1.558-8.578-4.675v15.925h-10.161zm10.161-27.527c0 2.508.152 4.242.457 5.203.304.961.949 1.823 1.934 2.584.984.762 2.051 1.143 3.199 1.143 1.429 0 2.707-.732 3.832-2.197 1.125-1.464 1.688-4.693 1.688-9.686 0-7.008-1.852-10.512-5.555-10.512-1.406 0-2.684.621-3.832 1.863-1.148 1.243-1.723 3.352-1.723 6.328zm60.574-.457h-22.852a46.413 46.413 0 00-.035 1.652c0 2.531.673 4.442 2.021 5.73 1.348 1.289 2.958 1.934 4.834 1.934 3.492 0 5.59-1.863 6.293-5.59l9.492.703c-2.649 8.204-8.028 12.304-16.137 12.304-3.539 0-6.545-.708-9.018-2.126-2.473-1.418-4.512-3.486-6.117-6.205-1.605-2.719-2.408-5.977-2.408-9.773 0-5.648 1.611-10.207 4.834-13.676 3.222-3.468 7.365-5.203 12.428-5.203 4.57 0 8.49 1.612 11.76 4.834 3.27 3.223 4.905 8.362 4.905 15.416zM257.87 25.91h12.621c-.329-4.875-2.333-7.313-6.012-7.313-3.937.001-6.14 2.439-6.609 7.313z" fill="#1e1d24"/></svg>