<svg xmlns="http://www.w3.org/2000/svg" viewBox="0 0 512.539 97.821" height="97.821" width="512.539"><path d="M85.366 4.435c0-.282.123-.636.371-1.06.247-.424.724-.636 1.431-.636h24.062c0 1.98-.018 3.551-.053 4.717-.037 1.166-.159 1.891-.371 2.173-.212.283-.566.424-1.06.424H93.952v65.19c0 .283-.106.636-.318 1.06-.212.424-.636.636-1.272.636h-6.996zm25.28 92.591c-.601-.53-.901-1.502-.901-2.915V27.12c4.452-2.826 9.609-4.24 15.476-4.24 5.653 0 9.946 1.626 12.879 4.876 2.932 3.251 4.399 8.975 4.399 17.172 0 12.792-1.502 21.501-4.505 26.13C134.99 75.686 131.226 78 126.705 78c-1.838 0-3.481-.283-4.929-.848-1.449-.564-2.597-1.272-3.445-2.12v22.154c-1.343.424-2.827.636-4.452.636-1.555 0-2.633-.265-3.233-.795zm22.419-51.145c0-4.168-.301-7.383-.901-9.646-.601-2.26-1.484-3.816-2.65-4.664-1.166-.848-2.739-1.272-4.717-1.272-2.403 0-4.558.672-6.466 2.014V66.87c1.413 2.332 3.321 3.498 5.724 3.498 6.006 0 9.01-8.162 9.01-24.486zm16.219 46.746c0-.848.035-1.484.106-1.908 2.685 0 4.751-.813 6.201-2.438 1.448-1.626 2.772-4.735 3.975-9.328l-12.932-52.682c-.142-.565-.212-.917-.212-1.06 0-.565.512-.917 1.537-1.06 1.023-.14 3.374-.212 7.049-.212l5.724 25.44a168.51 168.51 0 011.855 11.077c.53 3.922.865 6.484 1.007 7.685.141-1.13.459-3.657.954-7.579.494-3.922 1.06-7.685 1.696-11.289l4.77-22.896c.141-.917.353-1.519.636-1.802.282-.282.954-.459 2.014-.53 1.06-.069 3.215-.106 6.466-.106l-13.038 55.862c-1.555 6.29-3.339 10.812-5.353 13.568-2.014 2.756-4.576 4.168-7.685 4.24-3.18 0-4.77-1.66-4.77-4.982zm38.795-16.377c-2.403-1.166-3.604-2.632-3.604-4.399 0-.636.123-1.43.371-2.385.247-.954.618-1.89 1.113-2.809 1.484 1.203 3.18 2.173 5.088 2.915s3.779 1.113 5.618 1.113c2.261 0 4.187-.67 5.777-2.014 1.59-1.34 2.385-3.673 2.385-6.996 0-5.793-2.756-8.692-8.268-8.692h-4.24c-1.415 0-2.12-.742-2.12-2.226v-4.664h9.116c2.473-2.473 3.71-5.44 3.71-8.904 0-4.664-2.157-6.996-6.466-6.996-3.11 0-6.113 1.237-9.01 3.71-1.272-1.908-1.908-3.46-1.908-4.664 0-.848.441-1.765 1.325-2.756.883-.989 2.226-1.837 4.028-2.544 1.802-.706 4.045-1.06 6.731-1.06 4.522 0 7.914 1.043 10.176 3.127 2.261 2.085 3.392 5 3.392 8.745 0 2.544-.514 4.947-1.537 7.208a18.261 18.261 0 01-4.293 5.936c2.685 1.343 4.681 3.074 5.989 5.194 1.307 2.12 1.961 4.913 1.961 8.374 0 5.371-1.484 9.471-4.452 12.296-2.968 2.828-7.033 4.24-12.19 4.24-3.392 0-6.291-.583-8.692-1.749zm39.324-.159c-2.262-1.272-3.853-3.162-4.77-5.67-.919-2.508-1.378-5.848-1.378-10.018V25.635c0-.636.123-1.06.371-1.272.247-.212 1.095-.334 2.544-.37a249.65 249.65 0 015.883-.054v37.206c0 3.604.477 6.08 1.431 7.42.954 1.343 2.878 2.014 5.777 2.014 2.826 0 5.194-.67 7.102-2.014v-42.93c0-.636.141-1.06.424-1.272.282-.212 1.113-.334 2.491-.37 1.378-.036 3.268-.054 5.671-.054v50.244c-2.12 1.131-4.594 2.05-7.42 2.756a34.886 34.886 0 01-8.48 1.06c-4.17 0-7.385-.636-9.646-1.908z" fill="#1e1d24"/><path d="M262.383 4.753c0-.706.212-1.219.636-1.537.424-.318 1.166-.477 2.226-.477h10.494c11.872 0 17.808 5.443 17.808 16.324 0 5.371-1.043 9.487-3.127 12.35-2.085 2.861-4.436 4.47-7.049 4.822 3.321.212 6.236 1.431 8.745 3.657 2.508 2.226 3.763 6.166 3.763 11.82 0 8.48-1.892 14.804-5.671 18.973-3.781 4.17-8.604 6.254-14.469 6.254h-13.356zm13.992 28.302c2.332 0 4.222-1.024 5.671-3.074 1.447-2.049 2.173-5.123 2.173-9.222 0-3.957-.726-6.694-2.173-8.215-1.449-1.519-3.375-2.279-5.777-2.279h-5.194v22.79zm-.424 36.358c2.897 0 5.282-1.395 7.155-4.187 1.872-2.79 2.809-7.049 2.809-12.773 0-3.462-.407-6.077-1.219-7.844-.813-1.766-1.908-2.915-3.286-3.445-1.378-.53-3.164-.795-5.353-.795h-4.982v29.044z" fill="#fd484e"/><path d="M303.723 4.435c0-.282.123-.636.371-1.06.247-.424.724-.636 1.431-.636h24.062c0 1.98-.018 3.551-.053 4.717-.037 1.166-.159 1.891-.371 2.173-.212.283-.566.424-1.06.424h-15.794v65.19c0 .283-.106.636-.318 1.06-.212.424-.636.636-1.272.636h-6.996zm27.506 70.331c-2.58-2.155-3.869-6.448-3.869-12.879 0-6.713 1.289-11.289 3.869-13.727 2.579-2.438 6.024-3.657 10.335-3.657 3.321 0 5.9.46 7.738 1.378v-8.374c0-2.4-.53-4.063-1.59-4.982-1.06-.917-2.721-1.378-4.982-1.378-2.544 0-5.125.23-7.738.69-2.615.46-4.735 1.042-6.36 1.748-.779-1.484-1.166-3.144-1.166-4.982 0-1.413.387-2.367 1.166-2.862 1.06-.705 3.108-1.359 6.148-1.96 3.038-.6 6.395-.902 10.07-.902 4.593 0 7.914.991 9.964 2.968 2.049 1.98 3.074 5.3 3.074 9.964v5.618c0 15.547-.212 26.536-.636 32.966-1.696 1.06-3.852 1.926-6.466 2.597-2.615.67-5.583 1.007-8.904 1.007-4.524 0-8.074-1.076-10.653-3.233zm15.423-4.505c1.06-.353 1.836-.742 2.332-1.166.212-2.4.318-8.125.318-17.172-1.343-.706-3.004-1.06-4.982-1.06-2.544 0-4.523.742-5.936 2.226-1.415 1.484-2.12 4.346-2.12 8.586 0 3.604.583 6.025 1.749 7.261 1.166 1.237 2.95 1.855 5.353 1.855 1.129 0 2.226-.176 3.286-.53zm21.728 5.989c-2.403-1.166-3.604-2.632-3.604-4.399 0-.636.123-1.43.371-2.385.247-.954.618-1.89 1.113-2.809 1.484 1.203 3.18 2.173 5.088 2.915s3.779 1.113 5.618 1.113c2.261 0 4.187-.67 5.777-2.014 1.59-1.34 2.385-3.673 2.385-6.996 0-5.793-2.756-8.692-8.268-8.692h-4.24c-1.415 0-2.12-.742-2.12-2.226v-4.664h9.116c2.473-2.473 3.71-5.44 3.71-8.904 0-4.664-2.157-6.996-6.466-6.996-3.11 0-6.113 1.237-9.01 3.71-1.272-1.908-1.908-3.46-1.908-4.664 0-.848.441-1.765 1.325-2.756.883-.989 2.226-1.837 4.028-2.544 1.802-.706 4.045-1.06 6.731-1.06 4.522 0 7.914 1.043 10.176 3.127 2.261 2.085 3.392 5 3.392 8.745 0 2.544-.514 4.947-1.537 7.208a18.261 18.261 0 01-4.293 5.936c2.685 1.343 4.681 3.074 5.989 5.194 1.307 2.12 1.961 4.913 1.961 8.374 0 5.371-1.484 9.471-4.452 12.296-2.968 2.828-7.033 4.24-12.19 4.24-3.391 0-6.29-.583-8.692-1.749zm62.433-9.91c.494 1.554.742 3.497.742 5.83 0 1.625-1.431 3.003-4.293 4.133S420.955 78 416.927 78c-3.604 0-6.625-.672-9.063-2.014-2.438-1.34-4.364-3.816-5.777-7.42-1.414-3.604-2.12-8.727-2.12-15.37 0-8.268.864-14.628 2.597-19.08 1.731-4.452 3.938-7.437 6.625-8.957 2.685-1.519 5.865-2.279 9.54-2.279 8.974 0 13.462 5.654 13.462 16.96 0 5.654-.39 10.248-1.167 13.78-3.11.636-6.731 1.078-10.865 1.325-4.134.25-7.934.371-11.395.371.141 3.816.583 6.75 1.325 8.798.742 2.051 1.802 3.498 3.18 4.346 1.378.848 3.197 1.272 5.459 1.272 4.241 0 8.269-1.129 12.085-3.392zm-19.186-31.96c-1.555 2.65-2.474 7.367-2.756 14.151 6.996 0 11.835-.424 14.522-1.272.353-1.625.53-3.745.53-6.36-.071-3.957-.53-6.694-1.378-8.215-.848-1.519-2.438-2.279-4.77-2.279-2.544 0-4.594 1.325-6.148 3.975zm22.79 38.213c0-.353.069-1.023.212-2.014 2.613 0 4.574-1.378 5.883-4.134 1.307-2.756 2.279-6.996 2.915-12.72.637-5.724 1.342-14.84 2.12-27.348.069-.777.229-1.325.478-1.643.246-.318.848-.53 1.802-.636.954-.106 2.632-.159 5.035-.159H471.2v51.304c0 .636-.106 1.06-.318 1.272-.212.212-1.025.336-2.438.371-1.415.037-3.393.053-5.937.053V31.147h-8.904c-.636 11.236-1.502 20.158-2.597 26.765-1.097 6.608-2.58 11.501-4.452 14.681-1.873 3.18-4.364 4.77-7.473 4.77-3.11 0-4.664-1.59-4.664-4.77zm47.594-44.838c0-1.272.159-2.155.477-2.65.318-.494 1.007-.812 2.067-.954 1.06-.14 2.968-.212 5.724-.212v20.776h5.512c5.653 0 9.858 1.007 12.614 3.021 2.756 2.014 4.134 5.742 4.134 11.183 0 7.208-1.819 12.015-5.459 14.416-3.64 2.403-8.569 3.604-14.786 3.604h-10.282V27.755zm18.868 40.015c1.483-1.59 2.226-4.434 2.226-8.533 0-2.4-.336-4.168-1.007-5.3-.673-1.129-1.59-1.872-2.756-2.226-1.166-.353-2.774-.53-4.823-.53l-4.24.106V70.05l4.346.106c2.685 0 4.77-.795 6.254-2.385zM0 48.388h28.998v28.998H0zm42.381 0h28.998v28.998H42.381zM0 6.007h28.998v28.998H0z" fill="#1e1d24"/><path fill="#fd484e" d="M36.373 20.504L56.878-.001l20.504 20.505-20.504 20.505z"/></svg>